<?xml version="1.0"?>
<COLLADA xmlns="http://www.collada.org/2005/11/COLLADASchema" version="1.4.1">
  <asset>
    <contributor>
      <author>Assimp</author>
      <authoring_tool>Assimp Exporter</authoring_tool>
    </contributor>
    <created>2016-10-11T01:02:53</created>
    <modified>2016-10-11T01:02:53</modified>
    <unit name="meter" meter="1" />
    <up_axis>Y_UP</up_axis>
  </asset>
  <library_effects>
    <effect id="lambert2-fx" name="lambert2">
      <profile_COMMON>
        <technique sid="standard">
          <phong>
            <diffuse>
              <color sid="diffuse">0.5   0.5   0.5   1</color>
            </diffuse>
          </phong>
        </technique>
      </profile_COMMON>
    </effect>
  </library_effects>
  <library_materials>
    <material id="lambert2" name="lambert2">
      <instance_effect url="#lambert2-fx"/>
    </material>
  </library_materials>
  <library_geometries>
    <geometry id="meshId0" name="meshId0_name" >
      <mesh>
        <source id="meshId0-positions" name="meshId0-positions">
          <float_array id="meshId0-positions-array" count="1419"> -0.0558745 0.999817 -0.418457 0.0597934 0.999817 -0.418457 0.087892 0.975245 -0.527752 -0.0829844 0.975245 -0.527752 0.0597934 0.999817 -0.418457 0.0597934 0.936753 -0.428846 0.087892 0.975245 -0.527752 -0.0558745 0.936753 -0.428846 -0.0558745 0.999817 -0.418457 -0.0829844 0.975245 -0.527752 0.225879 0.999817 -0.418457 0.341547 0.999817 -0.418457 0.341547 0.975245 -0.527752 0.19778 0.975245 -0.527752 0.341547 0.999817 -0.418457 0.341547 0.936753 -0.428846 0.341547 0.975245 -0.527752 0.225879 0.936753 -0.428846 0.225879 0.999817 -0.418457 0.19778 0.975245 -0.527752 -0.337546 0.999817 -0.418457 -0.221878 0.999817 -0.418457 -0.194768 0.975245 -0.527752 -0.337545 0.975245 -0.527752 -0.221878 0.999817 -0.418457 -0.221878 0.936753 -0.428846 -0.194768 0.975245 -0.527752 -0.337545 0.936753 -0.428846 -0.337546 0.999817 -0.418457 -0.337545 0.975245 -0.527752 0.225879 0.822431 0.146173 0.341547 0.85975 0.133932 0.341547 0.782036 0.159318 0.225879 0.782036 0.159318 0.341547 0.85975 0.133932 0.341547 0.868307 0.216047 0.341547 0.779722 0.251694 0.341547 0.782036 0.159318 0.341547 0.868307 0.216047 0.225879 0.829863 0.231279 0.225879 0.779722 0.251694 0.341547 0.779722 0.251694 0.225879 0.829863 0.231279 0.225879 0.822431 0.146173 0.225879 0.782036 0.159318 0.225879 0.779722 0.251694 -0.337546 0.85975 0.133932 -0.221878 0.822431 0.146173 -0.221878 0.782036 0.159318 -0.337545 0.782036 0.159318 -0.221878 0.822431 0.146173 -0.221878 0.829863 0.231279 -0.221878 0.779722 0.251694 -0.221878 0.782036 0.159318 -0.221878 0.829863 0.231279 -0.337546 0.868307 0.216047 -0.337545 0.779722 0.251694 -0.221878 0.779722 0.251694 -0.337546 0.868307 0.216047 -0.337546 0.85975 0.133932 -0.337545 0.782036 0.159318 -0.337545 0.779722 0.251694 0.225879 1 0.163869 0.341547 1 0.163869 0.341547 0.999817 -0.418457 0.225879 0.999817 -0.418457 0.341547 0.93657 0.110403 0.341547 0.936753 -0.428846 0.341547 0.999817 -0.418457 0.341547 1 0.163869 0.225879 0.936753 -0.428846 0.341547 0.936753 -0.428846 0.341547 0.93657 0.110403 0.225879 0.93657 0.110403 0.225879 0.999817 -0.418457 0.225879 0.936753 -0.428846 0.225879 0.93657 0.110403 0.225879 1 0.163869 -0.0558745 1 0.160852 0.0597934 1 0.160852 0.0597934 0.999817 -0.418457 -0.0558745 0.999817 -0.418457 0.0597934 0.93657 0.110403 0.0597934 0.936753 -0.428846 0.0597934 0.999817 -0.418457 0.0597934 1 0.160852 -0.0558745 0.936753 -0.428846 0.0597934 0.936753 -0.428846 0.0597934 0.93657 0.110403 -0.0558745 0.93657 0.110403 -0.0558745 0.999817 -0.418457 -0.0558745 0.936753 -0.428846 -0.0558745 0.93657 0.110403 -0.0558745 1 0.160852 -0.337545 1 0.163869 -0.221878 1 0.163869 -0.221878 0.999817 -0.418457 -0.337546 0.999817 -0.418457 -0.221878 0.93657 0.110403 -0.221878 0.936753 -0.428846 -0.221878 0.999817 -0.418457 -0.221878 1 0.163869 -0.337545 0.936753 -0.428846 -0.221878 0.936753 -0.428846 -0.221878 0.93657 0.110403 -0.337545 0.93657 0.110403 -0.337546 0.999817 -0.418457 -0.337545 0.936753 -0.428846 -0.337545 0.93657 0.110403 -0.337545 1 0.163869 0.225879 0.93657 0.110403 0.341547 0.93657 0.110403 0.341547 0.85975 0.133932 0.225879 0.89707 0.12169 0.341547 0.93657 0.110403 0.341547 1 0.163869 0.341547 0.868307 0.216047 0.341547 0.85975 0.133932 0.341547 1 0.163869 0.225879 1 0.163869 0.225879 0.906752 0.200815 0.341547 0.868307 0.216047 0.225879 1 0.163869 0.225879 0.93657 0.110403 0.225879 0.89707 0.12169 0.225879 0.906752 0.200815 -0.0558745 0.93657 0.110403 0.0597934 0.93657 0.110403 0.0597934 0.89707 0.12169 -0.0558745 0.89707 0.12169 0.0597934 0.93657 0.110403 0.0597934 1 0.160852 0.0597934 0.906752 0.200815 0.0597934 0.89707 0.12169 0.0597934 1 0.160852 -0.0558745 1 0.160852 -0.0558745 0.906752 0.200815 0.0597934 0.906752 0.200815 -0.0558745 1 0.160852 -0.0558745 0.93657 0.110403 -0.0558745 0.89707 0.12169 -0.0558745 0.906752 0.200815 -0.337545 0.93657 0.110403 -0.221878 0.93657 0.110403 -0.221878 0.89707 0.12169 -0.337546 0.85975 0.133932 -0.221878 0.93657 0.110403 -0.221878 1 0.163869 -0.221878 0.906752 0.200815 -0.221878 0.89707 0.12169 -0.221878 1 0.163869 -0.337545 1 0.163869 -0.337546 0.868307 0.216047 -0.221878 0.906752 0.200815 -0.337545 1 0.163869 -0.337545 0.93657 0.110403 -0.337546 0.85975 0.133932 -0.337546 0.868307 0.216047 -0.0558745 0.89707 0.12169 0.0597934 0.89707 0.12169 0.225879 0.822431 0.146173 -0.221878 0.822431 0.146173 0.0597934 0.906752 0.200815 -0.0558745 0.906752 0.200815 -0.221878 0.829863 0.231279 0.225879 0.829863 0.231279 0.225879 0.829863 0.231279 0.341547 0.868307 0.216047 0.225879 0.906752 0.200815 0.0597934 0.906752 0.200815 -0.221878 0.822431 0.146173 -0.337546 0.85975 0.133932 -0.221878 0.89707 0.12169 -0.0558745 0.89707 0.12169 0.225879 0.906752 0.200815 0.225879 0.89707 0.12169 0.0597934 0.89707 0.12169 0.0597934 0.906752 0.200815 0.225879 0.822431 0.146173 0.0597934 0.89707 0.12169 0.225879 0.89707 0.12169 0.341547 0.85975 0.133932 -0.221878 0.829863 0.231279 -0.0558745 0.906752 0.200815 -0.221878 0.906752 0.200815 -0.337546 0.868307 0.216047 -0.0558745 0.906752 0.200815 -0.0558745 0.89707 0.12169 -0.221878 0.89707 0.12169 -0.221878 0.906752 0.200815 0.225879 0.822431 0.146173 0.225879 0.829863 0.231279 -0.221878 0.829863 0.231279 -0.221878 0.822431 0.146173 0.101448 0.716269 0.419351 -1.67664e-09 0.731872 0.380334 5.30576e-10 0.830805 0.419899 0.101448 0.815202 0.458916 -1.67664e-09 0.731872 0.380334 -0.101448 0.716269 0.419351 -0.101448 0.815202 0.458916 5.30576e-10 0.830805 0.419899 -0.143469 0.678599 0.513546 -0.143469 0.777532 0.553111 -0.101448 0.640928 0.607741 -0.101448 0.739861 0.647306 -1.67664e-09 0.625325 0.646758 5.30576e-10 0.724257 0.686323 0.101448 0.640928 0.607741 0.101448 0.739861 0.647306 5.30576e-10 0.724257 0.686323 0.101448 0.640928 0.607741 0.143469 0.678599 0.513546 0.143469 0.777532 0.553111 0.12434 0.939338 0.483906 1.97153e-08 0.958462 0.436085 0 0.893167 0.599356 0.175843 0.893167 0.599356 -0.12434 0.939338 0.483906 -0.175843 0.893167 0.599356 -0.12434 0.846996 0.714806 3.94306e-08 0.827872 0.762627 0 0.893167 0.599356 0.12434 0.846996 0.714806 0.12434 0.823702 0.437661 -1.91249e-08 0.842827 0.38984 1.97153e-08 0.958462 0.436085 0.12434 0.939338 0.483906 -1.91249e-08 0.842827 0.38984 -0.12434 0.823702 0.437661 -0.12434 0.939338 0.483906 1.97153e-08 0.958462 0.436085 -0.175843 0.777532 0.553111 -0.175843 0.893167 0.599356 -0.12434 0.731361 0.668561 -0.12434 0.846996 0.714806 -3.88402e-08 0.712236 0.716382 3.94306e-08 0.827872 0.762627 0.12434 0.731361 0.668561 0.12434 0.846996 0.714806 0.175843 0.777531 0.553111 0.175843 0.893167 0.599356 0.101448 0.815202 0.458916 5.30576e-10 0.830805 0.419899 -1.91249e-08 0.842827 0.38984 0.12434 0.823702 0.437661 5.30576e-10 0.830805 0.419899 -0.101448 0.815202 0.458916 -0.12434 0.823702 0.437661 -1.91249e-08 0.842827 0.38984 -0.101448 0.815202 0.458916 -0.143469 0.777532 0.553111 -0.175843 0.777532 0.553111 -0.12434 0.823702 0.437661 -0.143469 0.777532 0.553111 -0.101448 0.739861 0.647306 -0.12434 0.731361 0.668561 -0.175843 0.777532 0.553111 -0.101448 0.739861 0.647306 5.30576e-10 0.724257 0.686323 -3.88402e-08 0.712236 0.716382 -0.12434 0.731361 0.668561 5.30576e-10 0.724257 0.686323 0.101448 0.739861 0.647306 0.12434 0.731361 0.668561 -3.88402e-08 0.712236 0.716382 0.101448 0.739861 0.647306 0.143469 0.777532 0.553111 0.175843 0.777531 0.553111 0.12434 0.731361 0.668561 0.143469 0.777532 0.553111 0.101448 0.815202 0.458916 0.12434 0.823702 0.437661 0.175843 0.777531 0.553111 -0.271849 -1 0.688437 -0.344532 -0.934063 0.698424 -0.455037 -0.928844 0.423831 -0.383882 -1 0.41005 -0.253978 -0.934063 0.759593 -0.271849 -1 0.688437 0.271849 -1 0.688437 0.253978 -0.934063 0.759593 -0.344532 -0.934063 0.698424 -0.253978 -0.934063 0.759593 -0.258857 0.52892 0.759593 -0.343755 0.544198 0.700354 0.344532 -0.934063 0.698424 0.271849 -1 0.688437 0.383882 -1 0.41005 0.455037 -0.928844 0.423831 0.253978 -0.934063 0.759593 0.344532 -0.934063 0.698424 0.343755 0.544198 0.700354 0.258857 0.52892 0.759593 -0.343755 0.544198 0.700354 -0.275552 0.612009 0.699297 -0.385816 0.722929 0.447769 -0.455037 0.639568 0.423831 -0.275552 0.612009 0.699297 -0.258857 0.52892 0.759593 0.258857 0.52892 0.759593 0.275552 0.612009 0.699297 0.275552 0.612009 0.699297 0.343755 0.544198 0.700354 0.455037 0.639568 0.423831 0.385816 0.722929 0.447769 -0.265824 0.978649 -0.691471 -0.338927 0.913478 -0.704276 -0.455037 0.901215 -0.47084 -0.377604 0.978649 -0.47084 -0.244731 0.913478 -0.762627 -0.265824 0.978649 -0.691471 0.265824 0.978649 -0.691471 0.244731 0.913478 -0.762627 -0.338927 0.913478 -0.704276 -0.244731 0.913478 -0.762627 -0.244731 -0.934829 -0.762627 -0.338927 -0.934829 -0.704276 0.338927 0.913478 -0.704276 0.265824 0.978649 -0.691471 0.377604 0.978649 -0.47084 0.455037 0.901215 -0.47084 0.244731 0.913478 -0.762627 0.338927 0.913478 -0.704276 0.338927 -0.934829 -0.704276 0.244731 -0.934829 -0.762627 -0.338927 -0.934829 -0.704276 -0.265824 -1 -0.691471 -0.383882 -1 -0.454121 -0.455037 -0.928844 -0.47084 -0.265824 -1 -0.691471 -0.244731 -0.934829 -0.762627 0.244731 -0.934829 -0.762627 0.265824 -1 -0.691471 0.265824 -1 -0.691471 0.338927 -0.934829 -0.704276 0.455037 -0.928844 -0.47084 0.383882 -1 -0.454121 -0.455037 0.639568 0.423831 -0.385816 0.722929 0.447769 -0.383882 0.791667 0.243975 -0.455037 0.720397 0.21897 0.385816 0.722929 0.447769 0.455037 0.639568 0.423831 0.455037 0.720397 0.21897 0.383882 0.791667 0.243975 -0.455037 -0.928844 -0.47084 -0.383882 -1 -0.454121 -0.383882 -1 -0.24811 -0.455037 -0.928844 -0.24811 0.383882 -1 -0.454121 0.455037 -0.928844 -0.47084 0.455037 -0.928844 -0.24811 0.383882 -1 -0.24811 -0.383882 0.791553 -0.24811 -0.455037 0.720397 -0.27403 -0.455037 0.720397 0.21897 -0.383882 0.791667 0.243975 -0.455037 0.720397 -0.27403 -0.383882 0.791553 -0.24811 -0.377604 0.978649 -0.47084 -0.455037 0.901215 -0.47084 0.455037 0.720397 -0.27403 0.383882 0.791553 -0.24811 0.383882 0.791667 0.243975 0.455037 0.720397 0.21897 0.383882 0.791553 -0.24811 0.455037 0.720397 -0.27403 0.455037 0.901215 -0.47084 0.377604 0.978649 -0.47084 0.383882 -1 -0.24811 0.455037 -0.928844 -0.24811 0.455037 -0.928844 0.231562 0.383882 -1 0.231562 0.383882 -1 0.231562 0.455037 -0.928844 0.231562 0.455037 -0.928844 0.423831 0.383882 -1 0.41005 -0.455037 -0.928844 -0.24811 -0.383882 -1 -0.24811 -0.383882 -1 0.231562 -0.455037 -0.928844 0.231562 -0.455037 -0.928844 0.231562 -0.383882 -1 0.231562 -0.383882 -1 0.41005 -0.455037 -0.928844 0.423831 -0.253978 -0.934063 0.759593 0.253978 -0.934063 0.759593 0.258857 0.52892 0.759593 -0.258857 0.52892 0.759593 -0.383882 0.791553 -0.24811 0.383882 0.791553 -0.24811 0.377604 0.978649 -0.47084 -0.377604 0.978649 -0.47084 -0.244731 0.913478 -0.762627 0.244731 0.913478 -0.762627 0.244731 -0.934829 -0.762627 -0.244731 -0.934829 -0.762627 -0.383882 -1 -0.454121 0.383882 -1 -0.454121 0.383882 -1 -0.24811 -0.383882 -1 -0.24811 0.455037 0.720397 -0.27403 0.455037 -0.928844 -0.24811 0.455037 -0.928844 -0.47084 0.455037 0.901215 -0.47084 -0.455037 0.901215 -0.47084 -0.455037 -0.928844 -0.47084 -0.455037 -0.928844 -0.24811 -0.455037 0.720397 -0.27403 -0.383882 0.791667 0.243975 0.383882 0.791667 0.243975 0.455037 0.720397 0.21897 0.455037 -0.928844 0.231562 0.455037 -0.928844 -0.24811 0.455037 0.720397 -0.27403 0.383882 -1 0.231562 -0.383882 -1 0.231562 -0.455037 0.720397 -0.27403 -0.455037 -0.928844 -0.24811 -0.455037 -0.928844 0.231562 -0.455037 0.720397 0.21897 -0.385816 0.722929 0.447769 0.385816 0.722929 0.447769 0.455037 0.639568 0.423831 0.455037 -0.928844 0.423831 0.455037 -0.928844 0.231562 0.455037 0.720397 0.21897 0.383882 -1 0.41005 -0.383882 -1 0.41005 -0.455037 0.720397 0.21897 -0.455037 -0.928844 0.231562 -0.455037 -0.928844 0.423831 -0.455037 0.639568 0.423831 0.455037 0.901215 -0.47084 0.455037 -0.928844 -0.47084 0.338927 -0.934829 -0.704276 0.338927 0.913478 -0.704276 -0.338927 -0.934829 -0.704276 -0.455037 -0.928844 -0.47084 -0.455037 0.901215 -0.47084 -0.338927 0.913478 -0.704276 0.344532 -0.934063 0.698424 0.455037 -0.928844 0.423831 0.455037 0.639568 0.423831 0.343755 0.544198 0.700354 -0.455037 0.639568 0.423831 -0.455037 -0.928844 0.423831 -0.344532 -0.934063 0.698424 -0.271849 -1 0.688437 -0.253978 -0.934063 0.759593 -0.344532 -0.934063 0.698424 0.344532 -0.934063 0.698424 0.253978 -0.934063 0.759593 0.271849 -1 0.688437 -0.343755 0.544198 0.700354 -0.258857 0.52892 0.759593 -0.275552 0.612009 0.699297 0.275552 0.612009 0.699297 0.258857 0.52892 0.759593 0.343755 0.544198 0.700354 -0.265824 0.978649 -0.691471 -0.244731 0.913478 -0.762627 -0.338927 0.913478 -0.704276 0.338927 0.913478 -0.704276 0.244731 0.913478 -0.762627 0.265824 0.978649 -0.691471 -0.338927 -0.934829 -0.704276 -0.244731 -0.934829 -0.762627 -0.265824 -1 -0.691471 0.265824 -1 -0.691471 0.244731 -0.934829 -0.762627 0.338927 -0.934829 -0.704276 </float_array>
          <technique_common>
            <accessor count="473" offset="0" source="#meshId0-positions-array" stride="3">
              <param name="X" type="float" />
              <param name="Y" type="float" />
              <param name="Z" type="float" />
            </accessor>
          </technique_common>
        </source>
        <source id="meshId0-normals" name="meshId0-normals">
          <float_array id="meshId0-normals-array" count="1419"> -0.475187 0.879776 -0.0138382 0.475187 0.879776 -0.0138382 0.125329 0.989086 0.0774667 -0.125359 0.989088 0.0773894 0.475187 0.879776 -0.0138382 0.385833 0.303251 0.871305 0.125329 0.989086 0.0774667 -0.613979 -0.789323 -0.000259509 -0.475187 0.879776 -0.0138382 -0.125359 0.989088 0.0773894 -0.475187 0.879776 -0.0138384 0.475187 0.879776 -0.0138384 0.464256 0.854986 -0.231226 -0.125329 0.989086 0.0774673 0.475187 0.879776 -0.0138384 1 -2.71331e-07 1.01283e-07 0.464256 0.854986 -0.231226 -0.613979 -0.789323 -0.000259509 -0.475187 0.879776 -0.0138384 -0.125329 0.989086 0.0774673 -0.475187 0.879776 -0.0138384 0.475187 0.879776 -0.0138384 0.125359 0.989088 0.0773898 -0.464256 0.854986 -0.231226 0.475187 0.879776 -0.0138384 0.385984 0.30323 0.871245 0.125359 0.989088 0.0773898 -0.613978 -0.789323 -0.000259507 -0.475187 0.879776 -0.0138384 -0.464256 0.854986 -0.231226 -0.0926 -0.867305 -0.489089 0.733392 -0.201941 -0.64912 0.84301 -0.157328 -0.514376 -0.710617 -0.205787 -0.672811 0.733392 -0.201941 -0.64912 0.594345 0.296233 0.747663 0.45899 0.32726 0.825972 0.84301 -0.157328 -0.514376 0.594345 0.296233 0.747663 -0.149888 -0.529369 0.835046 -0.315691 0.349516 0.882144 0.45899 0.32726 0.825972 -0.149888 -0.529369 0.835046 -0.0926 -0.867305 -0.489089 -0.710617 -0.205787 -0.672811 -0.315691 0.349516 0.882144 -0.733424 -0.20193 -0.649087 0.0926045 -0.867326 -0.489049 0.710616 -0.205787 -0.672812 -0.843009 -0.157328 -0.514377 0.0926045 -0.867326 -0.489049 0.149895 -0.529425 0.835009 0.31569 0.349516 0.882144 0.710616 -0.205787 -0.672812 0.149895 -0.529425 0.835009 -0.594372 0.296226 0.747644 -0.45899 0.32726 0.825972 0.31569 0.349516 0.882144 -0.594372 0.296226 0.747644 -0.733424 -0.20193 -0.649087 -0.843009 -0.157328 -0.514377 -0.45899 0.32726 0.825972 -0.337347 0.928082 0.15767 0.361594 0.919166 0.156156 0.475187 0.879776 -0.0138384 -0.475187 0.879776 -0.0138384 0.735186 -0.674401 -0.0684446 1 -2.71331e-07 1.01283e-07 0.475187 0.879776 -0.0138384 0.361594 0.919166 0.156156 -0.613979 -0.789323 -0.000259509 1 -2.71331e-07 1.01283e-07 0.735186 -0.674401 -0.0684446 -0.711904 -0.698688 -0.0709095 -0.475187 0.879776 -0.0138384 -0.613979 -0.789323 -0.000259509 -0.711904 -0.698688 -0.0709095 -0.337347 0.928082 0.15767 -0.342087 0.930277 0.132515 0.342087 0.930277 0.132515 0.475187 0.879776 -0.0138382 -0.475187 0.879776 -0.0138382 0.716773 -0.695616 -0.0485352 0.385833 0.303251 0.871305 0.475187 0.879776 -0.0138382 0.342087 0.930277 0.132515 -0.613979 -0.789323 -0.000259509 0.385833 0.303251 0.871305 0.716773 -0.695616 -0.0485352 -0.716773 -0.695616 -0.0485352 -0.475187 0.879776 -0.0138382 -0.613979 -0.789323 -0.000259509 -0.716773 -0.695616 -0.0485352 -0.342087 0.930277 0.132515 -0.361594 0.919166 0.156156 0.337347 0.928082 0.157671 0.475187 0.879776 -0.0138384 -0.475187 0.879776 -0.0138384 0.711904 -0.698688 -0.0709095 0.385984 0.30323 0.871245 0.475187 0.879776 -0.0138384 0.337347 0.928082 0.157671 -0.613978 -0.789323 -0.000259507 0.385984 0.30323 0.871245 0.711904 -0.698688 -0.0709095 -0.735186 -0.674401 -0.0684446 -0.475187 0.879776 -0.0138384 -0.613978 -0.789323 -0.000259507 -0.735186 -0.674401 -0.0684446 -0.361594 0.919166 0.156156 -0.711904 -0.698688 -0.0709095 0.735186 -0.674401 -0.0684446 0.733392 -0.201941 -0.64912 -0.192727 0.186174 -0.963429 0.735186 -0.674401 -0.0684446 0.361594 0.919166 0.156156 0.594345 0.296233 0.747663 0.733392 -0.201941 -0.64912 0.361594 0.919166 0.156156 -0.337347 0.928082 0.15767 -0.102377 0.643908 0.758223 0.594345 0.296233 0.747663 -0.337347 0.928082 0.15767 -0.711904 -0.698688 -0.0709095 -0.192727 0.186174 -0.963429 -0.102377 0.643908 0.758223 -0.716773 -0.695616 -0.0485352 0.716773 -0.695616 -0.0485352 0.122698 -0.00888843 -0.992404 -0.122705 -0.00901286 -0.992402 0.716773 -0.695616 -0.0485352 0.342087 0.930277 0.132515 0.0726607 0.568479 0.819483 0.122698 -0.00888843 -0.992404 0.342087 0.930277 0.132515 -0.342087 0.930277 0.132515 -0.072667 0.568407 0.819532 0.0726607 0.568479 0.819483 -0.342087 0.930277 0.132515 -0.716773 -0.695616 -0.0485352 -0.122705 -0.00901286 -0.992402 -0.072667 0.568407 0.819532 -0.735186 -0.674401 -0.0684446 0.711904 -0.698688 -0.0709095 0.192773 0.186063 -0.963441 -0.733424 -0.20193 -0.649087 0.711904 -0.698688 -0.0709095 0.337347 0.928082 0.157671 0.102399 0.643845 0.758273 0.192773 0.186063 -0.963441 0.337347 0.928082 0.157671 -0.361594 0.919166 0.156156 -0.594372 0.296226 0.747644 0.102399 0.643845 0.758273 -0.361594 0.919166 0.156156 -0.735186 -0.674401 -0.0684446 -0.733424 -0.20193 -0.649087 -0.594372 0.296226 0.747644 -0.122705 -0.00901286 -0.992402 0.122698 -0.00888843 -0.992404 -0.0926 -0.867305 -0.489089 0.0926045 -0.867326 -0.489049 0.0726607 0.568479 0.819483 -0.072667 0.568407 0.819532 0.149895 -0.529425 0.835009 -0.149888 -0.529369 0.835046 -0.149888 -0.529369 0.835046 0.594345 0.296233 0.747663 -0.102377 0.643908 0.758223 0.0726607 0.568479 0.819483 0.0926045 -0.867326 -0.489049 -0.733424 -0.20193 -0.649087 0.192773 0.186063 -0.963441 -0.122705 -0.00901286 -0.992402 -0.102377 0.643908 0.758223 -0.192727 0.186174 -0.963429 0.122698 -0.00888843 -0.992404 0.0726607 0.568479 0.819483 -0.0926 -0.867305 -0.489089 0.122698 -0.00888843 -0.992404 -0.192727 0.186174 -0.963429 0.733392 -0.201941 -0.64912 0.149895 -0.529425 0.835009 -0.072667 0.568407 0.819532 0.102399 0.643845 0.758273 -0.594372 0.296226 0.747644 -0.072667 0.568407 0.819532 -0.122705 -0.00901286 -0.992402 0.192773 0.186063 -0.963441 0.102399 0.643845 0.758273 -0.0926 -0.867305 -0.489089 -0.149888 -0.529369 0.835046 0.149895 -0.529425 0.835009 0.0926045 -0.867326 -0.489049 0.707107 0.262567 -0.65655 0 0.371326 -0.928503 2.42472e-08 -0.0414979 -0.999139 0.64509 -0.140717 -0.751038 0 0.371326 -0.928503 -0.707107 0.262567 -0.65655 -0.645091 -0.140717 -0.751037 2.42472e-08 -0.0414979 -0.999139 -1 2.70722e-08 8.25703e-07 -0.912294 -0.380256 -0.152071 -0.707106 -0.262567 0.656551 -0.64509 -0.619793 0.446897 2.57186e-07 -0.371326 0.928503 2.34629e-07 -0.719014 0.694996 0.707107 -0.262567 0.656551 0.64509 -0.619793 0.446896 2.34629e-07 -0.719014 0.694996 0.707107 -0.262567 0.656551 1 5.41444e-08 7.71558e-07 0.912293 -0.380257 -0.152072 0.466372 0.871095 -0.153919 -4.66031e-08 0.942826 -0.333286 -6.69557e-08 0.928503 0.371325 0.659551 0.697918 0.27911 -0.466372 0.871095 -0.153919 -0.65955 0.697919 0.27911 -0.466374 0.524741 0.712139 6.21376e-08 0.45301 0.891506 -6.69557e-08 0.928503 0.371325 0.466374 0.524741 0.71214 0.688458 0.0438029 -0.723952 -1.47015e-07 0.149693 -0.988732 -4.66031e-08 0.942826 -0.333286 0.466372 0.871095 -0.153919 -1.47015e-07 0.149693 -0.988732 -0.688458 0.0438027 -0.723952 -0.466372 0.871095 -0.153919 -4.66031e-08 0.942826 -0.333286 -0.973626 -0.211839 -0.084718 -0.65955 0.697919 0.27911 -0.688457 -0.467481 0.554516 -0.466374 0.524741 0.712139 -2.06386e-07 -0.573372 0.819295 6.21376e-08 0.45301 0.891506 0.688457 -0.467481 0.554516 0.466374 0.524741 0.71214 0.973626 -0.211839 -0.0847185 0.659551 0.697918 0.27911 0.64509 -0.140717 -0.751038 2.42472e-08 -0.0414979 -0.999139 -1.47015e-07 0.149693 -0.988732 0.688458 0.0438029 -0.723952 2.42472e-08 -0.0414979 -0.999139 -0.645091 -0.140717 -0.751037 -0.688458 0.0438027 -0.723952 -1.47015e-07 0.149693 -0.988732 -0.645091 -0.140717 -0.751037 -0.912294 -0.380256 -0.152071 -0.973626 -0.211839 -0.084718 -0.688458 0.0438027 -0.723952 -0.912294 -0.380256 -0.152071 -0.64509 -0.619793 0.446897 -0.688457 -0.467481 0.554516 -0.973626 -0.211839 -0.084718 -0.64509 -0.619793 0.446897 2.34629e-07 -0.719014 0.694996 -2.06386e-07 -0.573372 0.819295 -0.688457 -0.467481 0.554516 2.34629e-07 -0.719014 0.694996 0.64509 -0.619793 0.446896 0.688457 -0.467481 0.554516 -2.06386e-07 -0.573372 0.819295 0.64509 -0.619793 0.446896 0.912293 -0.380257 -0.152072 0.973626 -0.211839 -0.0847185 0.688457 -0.467481 0.554516 0.912293 -0.380257 -0.152072 0.64509 -0.140717 -0.751038 0.688458 0.0438029 -0.723952 0.973626 -0.211839 -0.0847185 -0.0643574 -0.98822 0.13885 -0.863598 -0.0421698 0.502415 -0.976184 -0.0393891 0.213339 -0.10995 -0.993644 0.024159 -0.0967569 -0.0470965 0.994193 -0.0643574 -0.98822 0.13885 0.0643574 -0.98822 0.13885 0.0967569 -0.0470965 0.994193 -0.863598 -0.0421698 0.502415 -0.0967569 -0.0470965 0.994193 -0.103698 0.038617 0.993859 -0.873061 0.0313319 0.486604 0.863598 -0.0421698 0.502415 0.0643574 -0.98822 0.13885 0.10995 -0.993644 0.024159 0.976184 -0.0393891 0.213339 0.0967569 -0.0470965 0.994193 0.863598 -0.0421698 0.502415 0.873061 0.0313319 0.486604 0.103698 0.038617 0.993859 -0.873061 0.0313319 0.486604 -0.0669044 0.891539 0.447976 -0.104041 0.928051 0.357625 -0.981042 0.0401342 0.189596 -0.0669044 0.891539 0.447976 -0.103698 0.038617 0.993859 0.103698 0.038617 0.993859 0.0669044 0.891539 0.447976 0.0669044 0.891539 0.447976 0.873061 0.0313319 0.486604 0.981042 0.0401342 0.189596 0.104041 0.928051 0.357625 -0.0650447 0.985127 -0.15904 -0.810985 0.0332507 -0.584122 -0.953835 0.048933 -0.296317 -0.0945891 0.899077 0.42745 -0.0969484 0.038239 -0.994555 -0.0650447 0.985127 -0.15904 0.0650447 0.985127 -0.15904 0.0969484 0.038239 -0.994555 -0.810985 0.0332507 -0.584122 -0.0969484 0.038239 -0.994555 -0.0969484 -0.038239 -0.994555 -0.811794 -0.03414 -0.582946 0.810985 0.0332507 -0.584122 0.0650447 0.985127 -0.15904 0.0945891 0.899077 0.42745 0.953835 0.048933 -0.296317 0.0969484 0.038239 -0.994555 0.810985 0.0332507 -0.584122 0.811794 -0.03414 -0.582946 0.0969484 -0.038239 -0.994555 -0.811794 -0.03414 -0.582946 -0.0607242 -0.986889 -0.149538 -0.112919 -0.99321 -0.027975 -0.964776 -0.0352302 -0.260702 -0.0607242 -0.986889 -0.149538 -0.0969484 -0.038239 -0.994555 0.0969484 -0.038239 -0.994555 0.0607242 -0.986889 -0.149538 0.0607242 -0.986889 -0.149538 0.811794 -0.03414 -0.582946 0.964776 -0.0352302 -0.260702 0.112919 -0.99321 -0.027975 -0.981042 0.0401342 0.189596 -0.104041 0.928051 0.357625 -0.0808193 0.990378 0.112333 -0.998873 0.0471725 0.00526151 0.104041 0.928051 0.357625 0.981042 0.0401342 0.189596 0.998873 0.0471725 0.00526151 0.0808193 0.990378 0.112333 -0.964776 -0.0352302 -0.260702 -0.112919 -0.99321 -0.027975 -0.0854835 -0.99634 0 -0.999182 -0.0404429 0 0.112919 -0.99321 -0.027975 0.964776 -0.0352302 -0.260702 0.999182 -0.0404429 0 0.0854835 -0.99634 0 -0.0991006 0.960133 0.261388 -0.999509 0.0302297 0.00822945 -0.998873 0.0471725 0.00526151 -0.0808193 0.990378 0.112333 -0.999509 0.0302297 0.00822945 -0.0991006 0.960133 0.261388 -0.0945891 0.899077 0.42745 -0.953835 0.048933 -0.296317 0.999509 0.0302297 0.00822945 0.0991006 0.960133 0.261388 0.0808193 0.990378 0.112333 0.998873 0.0471725 0.00526151 0.0991006 0.960133 0.261388 0.999509 0.0302297 0.00822945 0.953835 0.048933 -0.296317 0.0945891 0.899077 0.42745 0.0854835 -0.99634 0 0.999182 -0.0404429 0 0.999177 -0.0405628 0 0.0853182 -0.996354 0 0.0853182 -0.996354 0 0.999177 -0.0405628 0 0.976184 -0.0393891 0.213339 0.10995 -0.993644 0.024159 -0.999182 -0.0404429 0 -0.0854835 -0.99634 0 -0.0853182 -0.996354 0 -0.999177 -0.0405628 0 -0.999177 -0.0405628 0 -0.0853182 -0.996354 0 -0.10995 -0.993644 0.024159 -0.976184 -0.0393891 0.213339 -0.0967569 -0.0470965 0.994193 0.0967569 -0.0470965 0.994193 0.103698 0.038617 0.993859 -0.103698 0.038617 0.993859 -0.0991006 0.960133 0.261388 0.0991006 0.960133 0.261388 0.0945891 0.899077 0.42745 -0.0945891 0.899077 0.42745 -0.0969484 0.038239 -0.994555 0.0969484 0.038239 -0.994555 0.0969484 -0.038239 -0.994555 -0.0969484 -0.038239 -0.994555 -0.112919 -0.99321 -0.027975 0.112919 -0.99321 -0.027975 0.0854835 -0.99634 0 -0.0854835 -0.99634 0 0.999509 0.0302297 0.00822945 0.999182 -0.0404429 0 0.964776 -0.0352302 -0.260702 0.953835 0.048933 -0.296317 -0.953835 0.048933 -0.296317 -0.964776 -0.0352302 -0.260702 -0.999182 -0.0404429 0 -0.999509 0.0302297 0.00822945 -0.0808193 0.990378 0.112333 0.0808193 0.990378 0.112333 0.998873 0.0471725 0.00526151 0.999177 -0.0405628 0 0.999182 -0.0404429 0 0.999509 0.0302297 0.00822945 0.0853182 -0.996354 0 -0.0853182 -0.996354 0 -0.999509 0.0302297 0.00822945 -0.999182 -0.0404429 0 -0.999177 -0.0405628 0 -0.998873 0.0471725 0.00526151 -0.104041 0.928051 0.357625 0.104041 0.928051 0.357625 0.981042 0.0401342 0.189596 0.976184 -0.0393891 0.213339 0.999177 -0.0405628 0 0.998873 0.0471725 0.00526151 0.10995 -0.993644 0.024159 -0.10995 -0.993644 0.024159 -0.998873 0.0471725 0.00526151 -0.999177 -0.0405628 0 -0.976184 -0.0393891 0.213339 -0.981042 0.0401342 0.189596 0.953835 0.048933 -0.296317 0.964776 -0.0352302 -0.260702 0.811794 -0.03414 -0.582946 0.810985 0.0332507 -0.584122 -0.811794 -0.03414 -0.582946 -0.964776 -0.0352302 -0.260702 -0.953835 0.048933 -0.296317 -0.810985 0.0332507 -0.584122 0.863598 -0.0421698 0.502415 0.976184 -0.0393891 0.213339 0.981042 0.0401342 0.189596 0.873061 0.0313319 0.486604 -0.981042 0.0401342 0.189596 -0.976184 -0.0393891 0.213339 -0.863598 -0.0421698 0.502415 -0.0643574 -0.98822 0.13885 -0.0967569 -0.0470965 0.994193 -0.863598 -0.0421698 0.502415 0.863598 -0.0421698 0.502415 0.0967569 -0.0470965 0.994193 0.0643574 -0.98822 0.13885 -0.873061 0.0313319 0.486604 -0.103698 0.038617 0.993859 -0.0669044 0.891539 0.447976 0.0669044 0.891539 0.447976 0.103698 0.038617 0.993859 0.873061 0.0313319 0.486604 -0.0650447 0.985127 -0.15904 -0.0969484 0.038239 -0.994555 -0.810985 0.0332507 -0.584122 0.810985 0.0332507 -0.584122 0.0969484 0.038239 -0.994555 0.0650447 0.985127 -0.15904 -0.811794 -0.03414 -0.582946 -0.0969484 -0.038239 -0.994555 -0.0607242 -0.986889 -0.149538 0.0607242 -0.986889 -0.149538 0.0969484 -0.038239 -0.994555 0.811794 -0.03414 -0.582946 </float_array>
          <technique_common>
            <accessor count="473" offset="0" source="#meshId0-normals-array" stride="3">
              <param name="X" type="float" />
              <param name="Y" type="float" />
              <param name="Z" type="float" />
            </accessor>
          </technique_common>
        </source>
        <source id="meshId0-tangents" name="meshId0-tangents">
          <float_array id="meshId0-tangents-array" count="1419"> 0.0882875 0.0633222 0.99408 -0.0884395 0.063404 0.994062 -0.0450576 -0.0723274 0.996363 0.03603 -0.0734146 0.996651 -0.186404 0.116027 0.975598 -0.79859 -0.363105 0.480009 -0.261248 -0.0424253 0.964339 0.167755 -0.13081 0.977112 0.180452 0.112835 0.97709 0.253092 -0.0435416 0.966462 0.129048 0.0852419 0.987968 -0.0334812 0.0337956 0.998868 0.060586 0.229798 0.971351 0.0812242 -0.0675916 0.994401 -0.0586723 0.047375 0.997153 -5.80522e-08 0.154827 0.987942 0.044805 0.23806 0.970216 0.158829 -0.123868 0.979505 0.197933 0.122206 0.972568 0.264232 -0.0419855 0.963545 0.0319476 0.0329686 0.998946 -0.13003 0.0857695 0.987793 -0.081862 -0.0674269 0.99436 -0.0615876 0.229271 0.971412 -0.194667 0.120456 0.973445 -0.819515 -0.32093 0.474763 -0.256802 -0.042997 0.965507 -0.074848 0.0578936 0.995513 0.0578825 0.0469494 0.997219 -0.0455784 0.237658 0.970279 -0.995666 0.0763899 0.0530484 -0.67971 -0.233942 -0.695173 -0.537774 -0.267017 -0.799688 -0.703483 0.192066 0.684267 0.631327 -0.151803 0.760514 -0.680091 -0.31105 0.663871 -0.689333 -0.455329 0.563467 0.509404 -0.0736027 0.857374 -0.0021413 -0.9291 0.369823 0.203201 -0.843051 -0.49797 0.00285117 -0.929333 0.369233 -0.00274845 -0.929159 0.369671 0.192069 0.812908 0.54981 -0.06249 -0.485169 0.872185 -0.672833 -0.0808358 0.735365 0.684149 -0.560348 0.466851 -0.679702 0.231569 0.695975 -0.995675 -0.0770064 -0.0519668 -0.703509 -0.194308 -0.683607 -0.537808 0.264055 0.800648 0.0624869 -0.48513 0.872207 -0.19202 0.812881 0.549866 -0.684345 -0.560124 0.466833 0.672857 -0.0807279 0.735355 -0.208443 -0.842491 -0.496751 -7.35841e-06 -0.929688 0.368348 0.000136553 -0.92966 0.368418 -0.00581681 -0.928956 0.370145 0.678549 -0.314239 0.663947 -0.630448 -0.155032 0.760592 -0.508886 -0.0765479 0.857424 0.687186 -0.45849 0.563526 0.049716 -0.149691 0.987482 -0.0621408 -0.143356 0.987718 0.00152336 0.0149049 0.999888 -0.0107437 0.00992492 0.999893 0.0541395 -0.0422307 0.99764 -9.9054e-08 0.00820227 0.999966 0.00347696 0.0138499 0.999898 -0.0594524 -0.144416 0.987729 -0.789199 0.613877 0.0178746 -1.01374e-07 -0.000360434 1 -0.677749 -0.733175 -0.0557808 -0.702153 0.706244 0.0905606 -0.00847174 0.0111522 0.999902 0.00208287 -0.00194894 0.999996 -0.0483371 -0.0519821 0.997478 0.0524216 -0.148709 0.987491 0.0445919 -0.124793 0.99118 -0.046854 -0.123961 0.99118 0.00576071 0.0126162 0.999904 -0.00732867 0.0117694 0.999904 0.0353387 -0.0332773 0.998821 -0.685865 -0.537366 0.490741 0.00615107 0.0124054 0.999904 -0.0461277 -0.124229 0.991181 -0.789322 0.613978 0.000833736 -0.922569 0.126624 0.364463 -0.697306 -0.715103 -0.0489071 -0.697307 0.714975 0.0507374 -0.00707153 0.0119082 0.999904 0.000461898 -0.000688064 1 -0.0342373 -0.0344121 0.998821 0.0453802 -0.124503 0.991181 0.0599403 -0.144224 0.987728 -0.0519738 -0.148872 0.98749 0.00753824 0.0116564 0.999904 -0.00472092 0.0131781 0.999902 0.0500252 -0.0502625 0.997482 -0.683886 -0.539785 0.490847 0.00706288 0.0119132 0.999904 -0.0535102 -0.148313 0.987492 -0.789228 0.61391 -0.0152817 -0.922498 0.130776 0.363174 -0.702194 -0.706632 -0.0871422 -0.677768 0.733036 0.0573595 -0.00485402 0.0131062 0.999902 -0.00252499 0.00163531 0.999995 -0.0524947 -0.0440249 0.99765 0.0583246 -0.14486 0.987732 -0.702261 0.70757 0.0785742 -0.677863 -0.731658 -0.0719612 -0.679703 -0.23446 -0.695005 -0.981173 -0.0490386 0.186801 0.0580234 -0.0379919 0.997592 -0.0619168 -0.143445 0.98772 -0.67821 -0.31499 0.663937 0.631304 -0.151893 0.760516 0.476816 -0.326242 0.816218 -0.456352 -0.307718 0.834897 -0.0348513 -0.764082 0.644177 -0.000990567 -0.929416 0.369033 0.0927679 -0.133899 0.986643 -0.109596 0.0107965 0.993918 -0.508257 0.820923 0.26031 0.151373 -0.743267 0.651645 -0.697307 0.715011 0.0502263 -0.697307 -0.715057 -0.0495616 -0.992444 -0.00173892 -0.122687 -0.992443 0.000459946 0.122706 0.0982142 0.0318011 0.994657 -0.0878071 -0.10876 0.990183 -0.137793 -0.808053 0.572768 0.715739 0.693503 0.0822802 0.458653 -0.288388 0.840517 -0.46203 -0.28932 0.838345 -0.0153808 -0.822245 0.568925 0.0136027 -0.822143 0.569118 0.0878003 -0.108762 0.990183 -0.0982056 0.0317923 0.994658 -0.716172 0.69306 0.0822562 0.137827 -0.808097 0.572697 -0.677864 0.731562 0.0729149 -0.702265 -0.70767 -0.0776311 -0.981183 0.0474828 -0.187153 -0.679696 0.232073 0.695813 0.109589 0.0107895 0.993918 -0.0927646 -0.133901 0.986644 -0.151426 -0.743307 0.651586 0.50851 0.820782 0.260258 0.452709 -0.306788 0.837219 -0.480159 -0.327161 0.813888 -0.00103763 -0.929968 0.36764 0.0315575 -0.763999 0.644445 0.060915 -0.14384 0.987724 -0.0566389 -0.0395033 0.997613 -0.63042 -0.155137 0.760594 0.676561 -0.318374 0.664005 -0.992443 0.00048199 0.122706 -0.992444 -0.00182417 -0.122687 -0.995703 0.0803487 0.0460354 -0.995703 -0.08094 -0.0449959 0.0146649 -0.822175 0.569046 -0.018576 -0.822333 0.568703 -0.201392 -0.843194 -0.498463 0.197108 -0.843633 -0.499432 0.199169 -0.84344 -0.49894 -0.000207071 -0.92963 0.368495 -0.0348331 -0.764081 0.644179 0.0165812 -0.82223 0.568914 -0.995697 -0.0789638 -0.0484995 -0.679702 0.231513 0.695993 -0.981235 0.0406305 -0.188487 -0.992443 0.000734383 0.122704 0.144994 -0.744428 0.65177 -0.511365 0.818915 0.260544 0.716477 0.69273 0.0823783 -0.145655 -0.806797 0.572593 -0.995692 0.0783058 0.0496558 -0.992443 -0.00251226 -0.12268 -0.981236 -0.0422039 0.188134 -0.67971 -0.233893 -0.695189 -0.2039 -0.842949 -0.497857 -0.0196498 -0.822361 0.568627 0.0316929 -0.764005 0.644431 -0.00173762 -0.930157 0.367158 0.145675 -0.806843 0.572523 -0.71689 0.692306 0.0823518 0.511618 0.818774 0.260492 -0.145041 -0.74447 0.651711 -0.0582314 -0.485641 0.872217 0.190444 0.813313 0.549775 -0.196547 0.811739 0.549954 0.063021 -0.48507 0.872202 0.00162535 0.927897 0.372834 0.00230607 0.9285 0.371325 0.00253756 0.999135 -0.0414978 0.291372 0.953931 0.0715368 0.0022644 0.9285 0.371325 0.00159611 0.929093 0.369843 -0.28784 0.955243 0.0682582 0.00247346 0.999136 -0.0414978 3.30036e-07 0.929337 0.369234 -0.409536 0.847982 0.336462 -0.00159761 0.929094 0.369841 -0.29134 0.740187 0.606007 -0.00226539 0.9285 0.371325 -0.00248737 0.694993 0.719012 -0.00161309 0.927901 0.372822 0.287807 0.738875 0.609287 -0.00249936 0.694993 0.719012 -0.00162087 0.927898 0.37283 -3.38369e-07 0.927648 0.373455 0.409536 0.846128 0.341097 -0.245886 -0.0394847 -0.968494 -1.36632e-05 -0.333286 -0.942826 -6.63851e-06 0.371325 -0.928503 -2.00108e-06 0.371327 -0.928502 0.245878 -0.0394896 -0.968496 2.50561e-06 0.371327 -0.928502 -0.245878 0.696429 -0.674189 -2.43799e-07 0.891506 -0.45301 4.61782e-06 0.371325 -0.928503 0.245883 0.696427 -0.674189 -0.162779 -0.963378 -0.213087 -0.00205138 -0.98873 -0.149693 -0.00302128 -0.333285 -0.942821 0.529358 -0.414236 -0.740398 -0.00204663 -0.98873 -0.149693 0.159879 -0.964455 -0.210395 -0.533635 -0.415824 -0.736427 -0.00302431 -0.333285 -0.942822 0.22815 -0.904773 -0.35963 -0.751657 -0.613513 -0.242104 0.162776 -0.844645 -0.509979 -0.529363 -0.810547 0.250578 0.00205141 -0.819293 -0.573371 0.00302436 -0.891501 0.453008 -0.159875 -0.843568 -0.512672 0.53364 -0.808958 0.246605 -0.22815 -0.903251 -0.363435 0.751656 -0.61127 -0.247712 0.764106 0.118939 0.634031 1 8.60913e-05 -3.55139e-06 1 4.89089e-05 7.25606e-06 0.725276 -0.0414881 0.687207 1 6.97533e-05 -2.87282e-06 0.764106 -0.118709 -0.634075 0.725276 0.0416183 -0.687199 1 2.96203e-05 4.33579e-06 0.764106 -0.118839 -0.63405 0.409537 -0.847148 -0.338556 0.228151 -0.904222 -0.361013 0.725276 0.0415377 -0.687204 0.409537 -0.847183 -0.338468 0.764107 -0.523218 0.377338 0.725277 -0.443733 0.526378 0.228151 -0.904159 -0.361171 0.764107 -0.523277 0.377255 1 -1.79007e-05 -1.88569e-05 1 -1.30142e-05 -8.8559e-06 0.725277 -0.44377 0.526347 1 -6.05833e-05 -6.30147e-05 0.764107 0.523176 -0.377396 0.725277 0.443693 -0.526413 1 -3.59095e-05 -2.48788e-05 0.764107 0.523226 -0.377326 0.409537 0.847071 0.338747 0.22815 0.903917 0.361774 0.725277 0.443744 -0.52637 0.409537 0.847013 0.338892 0.764106 0.118777 0.634061 0.725276 -0.041575 0.687201 0.22815 0.903968 0.361648 -0.836865 0.12924 0.531935 -0.111204 0.987887 -0.10823 -0.0344249 0.999044 0.0269357 -0.931666 0.111499 0.345783 0.995308 -0.00458033 0.0966484 0.997927 -0.0637318 0.00895209 0.997927 0.063731 -0.00895731 0.995308 0.00457622 -0.0966486 -0.037432 0.999109 0.0195178 -0.00807583 0.998884 0.0465328 0.000945633 0.999249 -0.0387278 0.0264038 0.999507 -0.0169838 0.109934 0.988269 -0.106016 0.835712 0.129413 0.533701 0.930817 0.11146 0.348076 0.0338028 0.998985 0.0297712 0.00628168 0.998889 0.0467076 0.0365116 0.99911 0.0210999 -0.0272792 0.999509 -0.0154132 -0.00271538 0.999253 -0.0385433 0.0383084 0.999256 0.00439173 0.639362 0.382996 -0.666731 0.723653 0.317307 -0.612897 0.0248727 0.996306 -0.082199 0.997759 0.0597816 0.0300392 0.994609 0.00402587 0.10362 0.994609 -0.00402654 -0.10362 0.997759 -0.059782 -0.0300385 -0.641469 0.382328 -0.665089 -0.0394493 0.999201 0.00644228 -0.025185 0.996428 -0.0806093 -0.725365 0.316816 -0.611125 0.809394 0.145302 0.569007 0.17606 0.965977 -0.189452 0.0976981 0.983529 -0.15207 0.988544 0.135556 -0.0663701 0.99529 0.00372475 -0.0968768 0.997882 0.0642133 -0.0103666 0.997882 -0.0642133 0.0103666 0.99529 -0.00372475 0.0968768 0.0272508 0.999447 0.0190583 0.0041702 0.999269 0.0380137 -0.00323594 0.999269 -0.0381048 -0.0274531 0.999417 -0.0203 -0.173957 0.966936 -0.186477 -0.807354 0.145621 0.571816 -0.988901 0.134275 -0.0635972 -0.0965627 0.984217 -0.148302 -0.00301506 0.999268 0.0381263 -0.0265473 0.999447 0.020035 0.0281763 0.999417 -0.0192929 0.00442664 0.999268 -0.0379887 -0.142169 0.979806 0.140598 -0.797931 0.138003 -0.586738 -0.915349 0.114936 -0.385908 -0.0357335 0.999357 -0.00281005 0.998155 -0.0600387 -0.00909817 0.99529 -0.00372441 -0.0968768 0.99529 0.00372475 0.0968768 0.998155 0.0600389 0.00909697 0.796537 0.138197 -0.588583 0.140751 0.980296 0.138595 0.0350757 0.999371 -0.00524639 0.914437 0.114894 -0.388078 0.0251517 0.996415 -0.0807785 0.868317 0.260096 -0.422346 0.983269 0.0976789 -0.153756 0.0462105 0.991796 -0.119184 -0.868891 0.25978 -0.421358 -0.0254494 0.996529 -0.0792625 -0.0462229 0.991932 -0.118045 -0.983421 0.0975872 -0.152838 -0.0358441 0.999355 -0.0024003 -0.982316 0.115824 -0.147103 -0.996147 0.085467 -0.0196531 -0.0400804 0.990229 -0.133567 0.982173 0.115834 -0.148047 0.0352052 0.999369 -0.00476678 0.0400749 0.990092 -0.134578 0.996154 0.0854675 -0.0193302 0.946365 0.172121 -0.273438 0.0292993 0.994932 -0.0961874 0.0465574 0.995308 -0.0848156 0.981067 0.0989431 -0.166486 0.0296229 0.997386 -0.0659035 0.960712 0.160755 -0.22625 0.959397 0.196937 -0.201925 0.11375 0.971993 -0.205647 -0.0293265 0.995164 -0.0937439 -0.94682 0.171794 -0.272064 -0.981244 0.0988456 -0.165499 -0.0465734 0.995454 -0.0830799 -0.961642 0.159929 -0.222862 -0.0296462 0.997534 -0.0636166 -0.113106 0.972523 -0.203486 -0.960475 0.195337 -0.198322 0.996126 0.0854652 -0.0206873 0.0404428 0.999182 0.000472475 0.0405526 0.998925 0.0224688 0.996354 0.0853182 0.000454125 0.996154 0.0853011 0.0200239 0.0402493 0.991454 0.124095 0.0339174 0.998997 0.0292492 0.984366 0.112224 0.135755 -0.040433 0.99894 -0.02198 -0.996339 0.0854834 -0.00100571 -0.996172 0.0853026 0.0191147 -0.0405628 0.999176 -0.00104638 -0.0402619 0.991764 0.121581 -0.996195 0.0853046 0.0178408 -0.984691 0.112202 0.133398 -0.0345327 0.999054 0.026444 0.995308 -0.00457885 0.0966485 0.995308 0.00457817 -0.0966485 0.994609 -0.00402621 -0.10362 0.994609 0.00402599 0.10362 0.995077 0.0956205 0.0260319 0.995077 -0.0956205 -0.0260319 0.995516 -0.0854259 -0.0406142 0.995516 0.0854259 0.0406142 0.0042347 0.999268 0.0380074 -0.00306306 0.999268 0.0381216 0.00447885 0.999268 -0.0379836 -0.00306306 0.999268 -0.0381216 0.993604 -0.112874 -0.00318044 0.993604 0.112874 0.00317864 0.99634 0.0854835 -0 0.99634 -0.0854835 -5.98413e-07 -0.0302366 0.999543 0.000710416 0.0404429 0.999182 0.00014273 0.034252 0.999379 -0.00829605 -0.0462264 0.998801 0.0161379 0.0466213 0.998802 0.014867 -0.0338813 0.999379 -0.00966787 -0.0404429 0.999181 -0.00140872 0.0302245 0.999543 -0.000761225 0.996729 0.0803044 0.00910864 0.996729 -0.0803044 -0.00910842 -0.0471716 0.998887 -0.000293941 0.0405628 0.999177 -0.000132013 0.0404429 0.999182 -4.54534e-05 -0.030229 0.999543 -0.0002078 0.996354 0.0853182 -0 0.996354 -0.0853182 0 0.0302161 0.999542 -0.00177844 -0.0404428 0.99918 -0.00169466 -0.0405627 0.999175 -0.00185911 0.0471629 0.998885 -0.00194358 0.994573 0.0970826 0.0374113 0.994573 -0.0970828 -0.0374107 -0.0394216 0.999194 -0.00752964 0.0384318 0.999224 0.0086343 0.0405628 0.999177 8.89973e-05 -0.0471716 0.998887 -0.000305775 0.993937 0.109917 -0.00267367 0.993937 -0.109917 0.00267187 0.0471623 0.998885 -0.00205473 -0.0405627 0.999176 -0.00170753 -0.0388165 0.999223 0.00687388 0.0390869 0.999193 -0.00926142 -0.046343 0.998801 0.0157626 0.0344719 0.999378 -0.00748214 0.0284909 0.999416 -0.0188547 -0.0264985 0.999447 0.0201028 -0.0276974 0.999417 -0.0199597 -0.0341101 0.999379 -0.00882143 0.046747 0.998802 0.0144625 0.0272722 0.999447 0.0190285 0.03663 0.99911 0.0208965 0.0384942 0.999224 0.00834893 -0.0394488 0.999194 -0.0073889 -0.0273376 0.999509 -0.0153084 0.0391057 0.999193 -0.00916386 -0.0389001 0.999222 0.00649132 -0.0376329 0.999108 0.0191723 -0.836366 0.129315 0.532701 -0.570778 0.820935 -0.0166603 -0.0554771 0.998393 -0.0115603 0.054335 0.998477 -0.00958983 0.56951 0.821819 -0.0164949 0.835 0.129519 0.53479 0.0075408 0.998682 -0.0507744 0.409454 0.912302 0.00727383 0.589319 0.397608 -0.703286 -0.592954 0.396623 -0.700782 -0.41234 0.910998 0.00762567 -0.00928773 0.998821 -0.047649 0.795227 0.147451 0.588109 0.5559 0.830952 -0.0222401 0.0647987 0.997346 -0.0331922 -0.0621311 0.997633 -0.0294722 -0.553283 0.832705 -0.0219176 -0.792295 0.147877 0.591947 -0.056206 0.998223 0.0198104 -0.547431 0.836582 0.0211979 -0.789004 0.139221 -0.598406 0.786916 0.139499 -0.601085 0.545591 0.837789 0.0209722 0.0543648 0.998372 0.0172378 </float_array>
          <technique_common>
            <accessor count="473" offset="0" source="#meshId0-tangents-array" stride="3">
              <param name="X" type="float" />
              <param name="Y" type="float" />
              <param name="Z" type="float" />
            </accessor>
          </technique_common>
        </source>
        <source id="meshId0-bitangents" name="meshId0-bitangents">
          <float_array id="meshId0-bitangents-array" count="1419"> 0.875444 0.471153 -0.107763 0.875429 -0.471141 0.107936 0.991092 -0.128364 0.0355011 0.991457 0.127728 -0.0264337 0.859913 -0.461012 0.219128 0.461938 -0.881019 0.102075 0.957101 -0.141098 0.25308 -0.77129 0.599882 0.212728 0.861182 0.461804 -0.212375 0.959286 0.140742 -0.244872 0.87037 0.467684 -0.154039 0.879247 -0.474186 0.0455151 0.883626 -0.464965 0.054885 0.988785 0.13092 -0.0718665 0.877926 -0.473022 0.0741305 -2.83741e-07 -0.987942 0.154827 0.884567 -0.460789 0.0722134 -0.773177 0.601354 0.20142 0.857333 0.459413 -0.232208 0.956281 0.14123 -0.256086 0.879305 0.474244 -0.043773 0.870224 -0.467587 0.155154 0.988728 -0.130988 0.0725162 0.883557 0.465225 -0.0537841 0.85808 -0.459875 0.228502 0.423571 -0.897249 0.124628 0.958299 -0.140909 0.24861 -0.785766 0.611243 -0.0946247 0.877979 0.473065 -0.0732334 0.884527 0.460997 -0.0713653 -0.00864769 0.491881 -0.870619 -0.0114726 0.951047 -0.308832 -0.0115337 0.950763 -0.309705 -0.0115893 0.959564 -0.281253 -0.252117 -0.967562 0.0161596 0.429222 -0.903047 0.0165944 0.560489 -0.827996 0.0165997 -0.172748 -0.9848 0.0180956 0.804208 -0.221403 -0.551571 0.967597 0.0950424 0.233931 0.948858 0.119078 0.292385 0.888437 -0.171945 -0.425575 -0.969868 0.242796 -0.0201698 -0.993741 0.111327 -0.00927125 -0.205716 0.975252 -0.081017 0.65748 0.750899 -0.0622245 0.00977066 0.95163 -0.30709 0.00741227 0.491747 -0.870707 0.00994469 0.959112 -0.282852 0.00985958 0.95159 -0.307213 -0.99374 -0.111329 0.0092713 -0.969876 -0.24276 0.0201869 0.657276 -0.751065 0.0623635 -0.205641 -0.975261 0.0810986 0.96648 -0.0995911 -0.23664 0.80419 0.21893 0.552583 0.888442 0.169213 0.42666 0.948844 -0.121982 -0.291229 0.431617 0.901945 -0.0142289 -0.254216 0.967052 -0.0136015 -0.174271 0.984575 -0.0155314 0.563119 0.826249 -0.0144461 0.940067 0.340963 0.00435724 0.930263 -0.366856 0.005281 0.879883 -0.475155 0.00574241 0.879819 0.475285 0.00473581 -0.6757 -0.737157 0.00546427 -2.72153e-07 -0.999966 0.00820227 0.879878 -0.475187 0.00352234 0.930438 -0.366441 0.0024268 -0.0139495 0.0111794 -0.99984 -2.71295e-07 -1 -0.000360434 -0.0125632 0.0873976 -0.996094 -0.0131942 0.11426 -0.993363 0.879844 0.475258 0.00215387 -0.78932 0.613976 0.00284066 -0.700611 0.713536 0.00323374 0.93992 0.341393 0.00151487 0.93861 0.344979 0.00120734 0.938499 -0.345279 0.00118159 0.879866 -0.475221 0.000926948 0.879854 0.475243 0.00085494 -0.696411 -0.717643 0.000729872 0.617027 -0.786941 0.000655666 0.879863 -0.475227 0.000483325 0.938535 -0.345183 0.00041452 -0.000498754 0.000716733 -1 0.000195295 -0.94446 0.328625 -0.000687107 0.0688992 -0.997623 -0.000592291 0.0702111 -0.997532 0.879856 0.475239 0.000562721 -0.789322 0.613978 0.000787043 -0.696466 0.71759 0.000849681 0.938572 0.345084 0.000374861 0.930407 0.366516 -0.00294462 0.939944 -0.341322 -0.00198544 0.879852 -0.475246 -0.00109299 0.879872 0.475206 -0.0021087 -0.700493 -0.713659 -0.000830084 0.619125 -0.785292 -0.000973344 0.879856 -0.475239 -0.00055277 0.939858 -0.341565 -0.000371221 0.0122215 -0.00917785 -0.999883 -0.00381263 -0.943901 0.330207 0.0107783 0.111829 -0.993669 0.0114891 0.0885594 -0.996005 0.879871 0.475208 -0.00195744 -0.789319 0.613976 -0.00299708 -0.675829 0.737052 -0.00303598 0.93051 0.366265 -0.0012295 -0.0047254 0.105734 -0.994383 -0.00154737 0.099301 -0.995056 -0.0118425 0.95092 -0.309211 -0.0124677 0.981292 0.19212 -0.675377 -0.737388 0.0111999 0.930278 -0.366822 0.00504318 0.432186 -0.90168 0.0136961 -0.252176 -0.967548 0.0160891 0.801184 -0.220682 -0.55624 0.823371 0.209697 0.52734 0.994135 0.0395236 0.100665 0.80421 -0.220074 -0.5521 0.936798 0.347468 -0.0409256 -0.693673 0.715345 -0.0842593 0.839364 0.539838 -0.0635898 0.983161 0.181488 -0.0213771 -0.000234984 0.0698448 -0.997558 -0.000229623 0.0693683 -0.997591 -0.00063521 0.999959 -0.00903463 -0.000649483 0.999959 -0.00900119 -0.690356 -0.71771 0.0911135 0.935557 -0.350365 0.0444796 0.987792 -0.154537 0.0196185 0.687504 -0.720399 0.0914533 0.82013 -0.226752 -0.525329 0.818233 0.225561 0.528788 0.997238 0.0287371 0.0684927 0.997264 -0.0302054 -0.0674703 0.935557 0.350364 -0.0444725 -0.690357 0.71771 -0.0911012 0.687053 0.720824 -0.0914969 0.987787 0.15457 -0.0196201 0.000897638 0.100002 -0.994987 0.00405938 0.105063 -0.994457 0.0109247 0.98139 0.191715 0.0101306 0.951508 -0.307459 -0.693674 -0.715345 0.0842495 0.936799 -0.347468 0.0409221 0.98315 -0.181544 0.0213813 0.8392 -0.540091 0.0636101 0.82538 -0.211055 -0.523645 0.799186 0.219317 0.559645 0.804189 0.217739 0.553055 0.994243 -0.0420612 -0.0985508 0.930344 0.366667 -0.00397949 -0.675495 0.737308 -0.009155 -0.254284 0.967035 -0.0135189 0.434726 0.900493 -0.0111821 -0.000627604 0.999959 -0.00900389 -0.000719822 0.999959 -0.00904509 -0.000629075 0.49125 -0.871018 -0.000557568 0.491115 -0.871095 0.997249 -0.0293297 -0.0680765 0.997183 0.0261023 0.0703152 0.967974 -0.0934468 -0.233013 0.968856 0.0897355 0.230793 0.968434 0.0915304 0.231855 0.80421 -0.219168 -0.552459 0.994136 0.0395376 0.100653 0.997219 -0.0277497 -0.0691699 0.00344771 0.491436 -0.870907 0.00973037 0.951644 -0.307049 0.00407471 0.981697 0.190403 -0.000377108 0.999959 -0.00903486 0.984122 0.176664 -0.0171507 0.837473 0.542878 -0.0626243 0.686736 -0.721142 0.091365 0.986664 -0.160966 0.024179 -0.00476827 0.49158 -0.87082 -0.00140274 0.999957 -0.00912951 -0.00563469 0.98161 0.190815 -0.0114375 0.951059 -0.308796 0.967448 -0.095632 -0.234304 0.997163 0.0252168 0.0709276 0.994238 -0.0419572 -0.0986385 0.804188 0.21693 0.553374 0.98666 0.160989 -0.0241719 0.686303 0.721548 -0.0914108 0.837308 -0.54313 0.0626448 0.984113 -0.176716 0.0171513 -0.993999 0.109248 -0.00553396 -0.970188 0.241434 -0.0210907 -0.968969 -0.246554 0.0176189 -0.993707 -0.11159 0.00974012 0.707105 -0.264701 0.655695 0.999997 -0.00214119 -0.000856302 0.999997 -0.00253537 0.000105328 0.706372 -0.264979 0.656373 0.999997 -0.0021025 -0.00084083 0.707105 0.26047 -0.657387 0.707817 0.260211 -0.656723 0.999997 -0.00247133 0.000102668 -7.5736e-07 0.369234 -0.929337 0.00101174 0.36923 -0.929337 -0.707105 0.260468 -0.657388 -0.706386 0.26073 -0.658057 -0.999997 -0.00210352 -0.00084096 -0.999997 -0.00172888 -0.00178829 -0.707105 -0.264684 0.655702 -0.707832 -0.264425 0.655021 -0.999997 -0.00173721 -0.00179691 -0.707105 -0.264695 0.655698 -6.95514e-07 -0.373455 0.927648 -0.00103232 -0.373459 0.927646 -0.849728 0.489525 0.195776 -1 4.50981e-06 1.28975e-05 -1 -2.52722e-06 6.13902e-06 -0.75166 0.612394 0.24491 -0.84973 -0.489525 -0.195766 -0.75166 -0.612393 -0.24491 -0.849729 -0.489523 -0.195774 -1 -1.89199e-07 1.65839e-07 -1 1.65255e-06 -4.31252e-06 -0.849728 0.489527 0.19577 -0.706773 0.264545 -0.656115 -0.999998 0.00202824 0.000307223 -0.999995 0.00100691 0.00284855 -0.708715 0.263823 -0.654309 -0.999998 0.00202355 0.000306512 -0.707435 -0.260593 0.656983 -0.705501 -0.261312 0.658775 -0.999995 0.00100792 0.00285142 -0.00046692 -0.369474 0.929241 0.00226875 -0.369475 0.929238 0.706775 -0.260836 0.657597 0.708711 -0.260117 0.655796 0.999998 0.00168059 0.00117639 0.999995 0.0026962 -0.00137012 0.707437 0.264299 -0.655499 0.705495 0.265016 -0.6573 0.000467502 0.373178 -0.92776 -0.00227094 0.373174 -0.927759 0.000108935 -0.98288 0.184249 8.61645e-05 -0.999139 0.0414979 4.9444e-05 -0.988733 -0.149693 6.62394e-05 -0.998178 -0.060332 6.98124e-05 -0.999139 0.0414979 7.02739e-05 -0.982907 0.184101 2.85022e-05 -0.998173 -0.0604215 2.99356e-05 -0.988733 -0.149693 -3.06517e-05 -0.982892 0.184184 -8.86619e-05 -0.371141 0.928577 -0.000127256 -0.37082 0.928705 -3.00389e-05 -0.998176 -0.060366 -0.000127256 -0.371061 0.928609 -4.71473e-05 0.584894 0.81111 -1.50502e-05 0.764567 0.644545 -8.84607e-05 -0.370974 0.928643 3.10689e-05 0.58484 0.811149 2.59993e-05 0.694996 0.719014 1.57402e-05 0.819295 0.573372 1.98931e-05 0.764545 0.64457 8.74136e-05 0.694996 0.719014 0.000102296 0.584931 0.811083 5.3212e-05 0.76459 0.644517 4.36852e-05 0.819295 0.573372 3.61502e-05 0.584885 0.811116 4.73857e-06 -0.371315 0.928507 -5.92321e-05 -0.371562 0.928408 4.78327e-06 0.764561 0.644552 -5.9247e-05 -0.371448 0.928454 -1.73897e-05 -0.982899 0.184144 3.09572e-06 -0.998175 -0.0603919 -2.8111e-05 -0.371438 0.928458 -0.543613 -0.0819644 -0.835324 -0.491765 -0.149337 -0.857826 -0.214196 0.0189501 -0.976607 -0.346279 0.0155106 -0.938003 1.92923e-06 0.99888 0.0473187 2.49222e-06 0.139138 0.990273 2.7651e-06 0.139138 0.990273 2.16626e-06 0.99888 0.0473183 -0.50279 -0.0019508 -0.864407 -0.995275 -0.00352656 -0.0970293 -0.994608 -0.00307617 -0.103657 -0.486896 -0.00197972 -0.873458 -0.49205 0.146788 0.858103 -0.545383 0.0816907 0.834196 -0.348556 -0.0157832 0.937155 -0.214295 -0.0218508 0.976525 -0.995288 0.00172591 0.0969452 -0.502858 0.000122154 0.864369 -0.486848 0.000182522 0.873487 -0.994605 0.00129816 0.103725 -0.486104 0.0224753 -0.873612 -0.76599 0.241812 -0.59564 -0.682277 0.19503 -0.7046 -0.192195 -0.0759249 -0.978415 3.81842e-07 0.448982 -0.893541 3.42261e-07 0.999246 -0.0388263 3.28757e-07 0.999246 -0.0388264 3.66941e-07 0.448982 -0.893541 -0.764226 -0.242865 0.597474 -0.486013 -0.0248207 0.873599 -0.192154 0.0743061 0.978548 -0.680457 -0.195826 0.706138 0.583653 -0.0917149 -0.806807 0.557949 -0.256483 -0.789246 0.283995 -0.174 -0.942905 -0.117615 0.416276 -0.901599 -2.32831e-10 -0.999262 -0.03842 0 -0.159377 -0.987218 0 -0.159377 -0.987218 2.32831e-10 -0.999262 -0.03842 0.584432 -0.000461822 -0.811442 0.995281 -0.000462119 -0.0970369 0.995284 -0.000475878 -0.0970012 0.583299 -0.000475727 -0.812258 0.558608 0.252843 0.789954 0.586471 0.0912078 0.804819 -0.114575 -0.41669 0.901799 0.284383 0.170069 0.943506 0.995285 -0.000697639 0.0969928 0.584465 -0.000741225 0.811419 0.583264 -0.000763357 0.812282 0.99528 -0.000719598 0.0970467 0.566374 0.197014 -0.800254 0.599682 0.0836919 -0.79585 0.386503 -0.0179695 -0.922113 0.260634 0.00660473 -0.965415 8.04663e-07 -0.149815 0.988714 3.40631e-07 -0.999262 0.0384199 -2.32831e-10 -0.999262 0.0384199 4.03263e-07 -0.149815 0.988714 0.601532 -0.0833715 0.794486 0.566728 -0.194561 0.800603 0.260723 -0.0040827 0.965405 0.388657 0.0182401 0.921202 -0.192159 -0.0744784 -0.978534 -0.484976 0.266591 -0.832904 -0.163249 0.0980273 -0.981703 -0.0108406 -0.118806 -0.992858 -0.483945 -0.266899 0.833404 -0.19212 0.0729347 0.978658 -0.0107876 0.117669 0.992994 -0.16233 -0.0981186 0.981846 0.260618 0.00702889 -0.965416 0.149345 0.0108695 -0.988725 0.0195812 -0.00168002 -0.999807 0.00540183 -0.133458 -0.99104 0.150282 -0.0107589 0.988585 0.260706 -0.00457919 0.965408 0.00544272 0.134468 0.990903 0.0192594 0.00165241 0.999813 -0.307527 0.220271 -0.925693 -0.0110955 -0.0958991 -0.995329 -0.0092378 -0.084475 -0.996383 -0.175998 0.0967512 -0.979624 -0.0102002 -0.0656274 -0.997792 -0.25925 0.228698 -0.938343 -0.265727 0.390994 -0.8812 0.277955 -0.229859 -0.932687 -0.0110235 0.0934566 0.995562 -0.306123 -0.220526 0.926098 -0.17501 -0.0968508 0.979792 -0.00915668 0.0827412 0.996529 -0.255781 -0.229276 0.939153 -0.0101323 0.0633413 0.99794 0.278218 0.227607 0.933161 -0.261804 -0.391796 0.882017 0.0206116 0.00176842 0.999786 -1.91082e-05 -0.000472088 1 -0.000911398 -0.0224503 0.999748 -0.000452469 -3.87451e-05 1 -0.0199509 -0.00170841 0.999799 -0.00503362 -0.123992 0.99227 -0.214277 -0.0213167 0.97654 -0.137603 0.00885507 0.990448 0.000888936 -0.0219621 -0.999758 0.00100203 -8.59714e-05 -1 -0.019045 0.00163083 -0.999817 4.2444e-05 -0.00104552 -0.999999 -0.00493167 0.121481 -0.992581 -0.0177758 0.00152215 -0.999841 -0.13526 -0.00912213 -0.990768 -0.214179 0.0184471 -0.97662 4.50294e-07 0.99888 0.0473186 2.24449e-07 0.99888 0.0473185 0 0.999246 -0.0388263 2.2538e-07 0.999246 -0.0388263 0 0.262682 -0.964883 -1.86265e-09 0.262682 -0.964883 0 0.429375 -0.903126 0 0.429375 -0.903126 0.99528 -0.000526878 -0.0970394 0.995285 -0.000649446 0.0969946 0.995279 -0.000772008 0.0970487 0.995285 -0.000649446 -0.0969946 1.19209e-06 -0.0281552 0.999604 5.96046e-07 -0.028155 0.999604 0 0 1 5.96223e-07 -5.11545e-08 1 -0.00820421 -0.000958897 0.999966 -5.77242e-06 -0.000142613 1 0.260832 -0.000925741 0.965384 0.296751 -0.00169528 0.954953 0.29669 0.00036603 -0.954974 0.260881 -0.000494395 -0.965371 5.69726e-05 -0.00140756 -0.999999 -0.0082487 -0.00051212 -0.999966 1.4808e-07 0.112702 -0.993629 7.35745e-08 0.112702 -0.993629 -0.00526952 4.54156e-05 0.999986 5.3548e-06 0.000131904 1 1.83827e-06 4.54163e-05 1 -0.00823197 -4.10702e-05 0.999966 0 0 1 0 0 1 -0.00827944 -0.0015289 -0.999965 6.85368e-05 -0.00169327 -0.999999 7.54107e-05 -0.00185758 -0.999998 -0.00534733 -0.00169324 -0.999984 3.68804e-07 0.359577 -0.933116 2.64496e-07 0.359577 -0.933115 -0.189746 -8.73087e-05 0.981833 -0.213514 -0.000229664 0.97694 -3.60997e-06 -8.8924e-05 1 -0.00527008 5.72361e-05 0.999986 1.19186e-06 0.0243065 0.999705 5.95814e-07 0.0243063 0.999705 -0.00535258 -0.00180427 -0.999984 6.92623e-05 -0.00170613 -0.999999 -0.213444 -0.0015709 -0.976954 -0.189815 -0.00167511 -0.981818 0.296733 -0.00130267 0.95496 0.260803 -0.00176831 0.96539 0.583249 -0.00130249 0.812292 0.584467 -0.000824694 0.811417 0.583287 -5.70901e-05 -0.812266 0.260851 0.000381859 -0.965379 0.29667 -5.70966e-05 -0.95498 0.584431 -0.000498463 -0.811443 -0.502849 0.000357285 0.864374 -0.213502 6.22161e-05 0.976943 -0.18974 -0.000230542 0.981834 -0.486844 6.25961e-05 0.873489 -0.189811 -0.00157582 -0.981819 -0.213429 -0.00196218 -0.976957 -0.502775 -0.0023502 -0.864414 -0.544381 -0.0818458 -0.834836 -0.815383 -0.569076 -0.106313 -0.50112 -0.0378559 -0.86455 -0.501245 0.0355804 0.864574 -0.81627 0.567799 0.106339 -0.546473 0.0815217 0.833499 -0.487553 -0.0406597 -0.872146 -0.906419 0.407693 -0.110416 -0.805125 0.216948 -0.552003 -0.802452 -0.218744 0.555178 -0.905109 -0.410599 0.110392 -0.487523 0.037081 0.872322 0.602813 -0.0882193 -0.792991 0.825576 -0.555029 -0.101816 0.581468 -0.0647687 -0.810987 0.581759 0.0601936 0.811131 0.827332 0.552395 0.101886 0.606661 0.0875034 0.79013 0.581233 0.048847 -0.81227 0.831216 0.546505 -0.102038 0.61138 0.0816485 -0.787114 0.614064 -0.0811737 0.78507 0.832425 -0.544653 0.102085 0.581408 -0.0456853 0.812328 </float_array>
          <technique_common>
            <accessor count="473" offset="0" source="#meshId0-bitangents-array" stride="3">
              <param name="X" type="float" />
              <param name="Y" type="float" />
              <param name="Z" type="float" />
            </accessor>
          </technique_common>
        </source>
        <source id="meshId0-tex0" name="meshId0-tex0">
          <float_array id="meshId0-tex0-array" count="946"> 0.711028 0.751134 0.711015 0.781324 0.681762 0.788419 0.681835 0.744117 0.711015 0.781324 0.708417 0.797799 0.681762 0.788419 0.708409 0.734686 0.711028 0.751134 0.681835 0.744117 0.710464 0.824133 0.710675 0.854034 0.681979 0.855997 0.680599 0.817936 0.710675 0.854034 0.707446 0.870236 0.681979 0.855997 0.707804 0.807673 0.710464 0.824133 0.680599 0.817936 0.710916 0.67826 0.71062 0.708154 0.68077 0.714077 0.682206 0.676241 0.71062 0.708154 0.707886 0.724602 0.68077 0.714077 0.707736 0.662046 0.710916 0.67826 0.682206 0.676241 0.796175 0.03254 0.765993 0.0424227 0.7662 0.0211316 0.796322 0.0214808 0.853632 0.891568 0.875137 0.889691 0.883957 0.913064 0.859854 0.911974 0.898969 0.855047 0.909774 0.824838 0.923905 0.824838 0.9239 0.855031 0.562305 0.851778 0.540055 0.851689 0.542595 0.840918 0.566539 0.838332 0.942803 0.0425741 0.912637 0.0326394 0.912512 0.0215811 0.942632 0.0212815 0.540048 0.96833 0.562308 0.968241 0.566537 0.981688 0.542596 0.979098 0.90995 0.708105 0.899239 0.677858 0.924173 0.677957 0.924079 0.708152 0.875492 0.643125 0.85399 0.641192 0.860263 0.620802 0.884369 0.619774 0.862026 0.824854 0.861875 0.85499 0.710675 0.854034 0.710464 0.824133 0.847837 0.871421 0.707446 0.870236 0.710675 0.854034 0.861875 0.85499 0.793942 0.204129 0.76382 0.203709 0.765779 0.0633162 0.795898 0.063696 0.710464 0.824133 0.707804 0.807673 0.848193 0.808276 0.862026 0.824854 0.861927 0.751345 0.861889 0.781458 0.711015 0.781324 0.711028 0.751134 0.848725 0.797964 0.708417 0.797799 0.711015 0.781324 0.861889 0.781458 0.869376 0.204178 0.839256 0.204163 0.839335 0.0637558 0.869453 0.0637766 0.711028 0.751134 0.708409 0.734686 0.848806 0.734819 0.861927 0.751345 0.86213 0.677799 0.862184 0.707942 0.71062 0.708154 0.710916 0.67826 0.848295 0.724475 0.707886 0.724602 0.71062 0.708154 0.862184 0.707942 0.944708 0.203899 0.914586 0.204267 0.912862 0.0637965 0.942983 0.0634697 0.710916 0.67826 0.707736 0.662046 0.848143 0.661322 0.86213 0.677799 0.795898 0.063696 0.765779 0.0633162 0.765993 0.0424227 0.796046 0.0529944 0.847837 0.871421 0.861875 0.85499 0.875137 0.889691 0.853632 0.891568 0.861875 0.85499 0.862026 0.824854 0.888196 0.824831 0.898969 0.855047 0.487382 0.112246 0.471622 0.0974697 0.473338 0.0869104 0.494096 0.0870039 0.869453 0.0637766 0.839335 0.0637558 0.839343 0.053058 0.869461 0.0530779 0.471912 0.0330849 0.487025 0.0183529 0.494291 0.0437533 0.473533 0.0436596 0.861889 0.781458 0.861927 0.751345 0.888327 0.75136 0.888283 0.781506 0.58874 0.929983 0.573626 0.915251 0.575248 0.904676 0.596006 0.904583 0.942983 0.0634697 0.912862 0.0637965 0.912733 0.053095 0.942803 0.0425741 0.573337 0.850889 0.589096 0.836113 0.595811 0.861355 0.575053 0.861449 0.862184 0.707942 0.86213 0.677799 0.899239 0.677858 0.888365 0.708047 0.86213 0.677799 0.848143 0.661322 0.85399 0.641192 0.875492 0.643125 0.869461 0.0530779 0.839343 0.053058 0.796175 0.03254 0.912637 0.0326394 0.888283 0.781506 0.888327 0.75136 0.90995 0.708105 0.909774 0.824838 0.909774 0.824838 0.898969 0.855047 0.888196 0.824831 0.888283 0.781506 0.912637 0.0326394 0.942803 0.0425741 0.912733 0.053095 0.869461 0.0530779 0.494096 0.0870039 0.473338 0.0869104 0.473533 0.0436596 0.494291 0.0437533 0.796175 0.03254 0.839343 0.053058 0.796046 0.0529944 0.765993 0.0424227 0.90995 0.708105 0.888327 0.75136 0.888365 0.708047 0.899239 0.677858 0.596006 0.904583 0.575248 0.904676 0.575053 0.861449 0.595811 0.861355 0.540055 0.851689 0.562305 0.851778 0.562308 0.968241 0.540048 0.96833 0.504982 0.735823 0.50491 0.707227 0.532658 0.707158 0.532729 0.735754 0.505474 0.935991 0.505404 0.907396 0.533152 0.907328 0.533222 0.935923 0.505335 0.8788 0.533083 0.878732 0.505265 0.850204 0.533013 0.850136 0.505195 0.821609 0.532943 0.821541 0.505124 0.793013 0.532872 0.792944 0.532943 0.821541 0.505124 0.793013 0.505053 0.764418 0.532801 0.764349 0.681099 0.861696 0.694512 0.894076 0.648718 0.894076 0.648718 0.848283 0.681099 0.926456 0.648719 0.939869 0.616338 0.926456 0.602926 0.894076 0.648718 0.894076 0.616338 0.861696 0.534174 0.253577 0.53425 0.288625 0.501817 0.288695 0.501741 0.253647 0.533644 0.00824065 0.53372 0.0432887 0.501287 0.0433587 0.501212 0.00831061 0.533796 0.0783368 0.501363 0.0784067 0.533871 0.113385 0.501439 0.113455 0.533947 0.148433 0.501514 0.148503 0.534022 0.183481 0.50159 0.183551 0.534098 0.218529 0.501666 0.218599 0.763898 0.894032 0.737482 0.883083 0.737483 0.874653 0.769859 0.888072 0.737482 0.883083 0.711063 0.894021 0.705101 0.88806 0.737483 0.874653 0.711063 0.894021 0.700126 0.920441 0.691695 0.920442 0.705101 0.88806 0.700126 0.920441 0.711071 0.946859 0.70511 0.952821 0.691695 0.920442 0.711071 0.946859 0.737488 0.957805 0.737487 0.966236 0.70511 0.952821 0.737488 0.957805 0.763908 0.946867 0.76987 0.952829 0.737487 0.966236 0.763908 0.946867 0.774848 0.920448 0.783278 0.920448 0.76987 0.952829 0.774848 0.920448 0.763898 0.894032 0.769859 0.888072 0.783278 0.920448 0.00340338 0.0233605 0.0280497 0.0306425 0.0295266 0.107118 0.0029315 0.106297 0.777306 0.617044 0.772653 0.59178 0.914241 0.591781 0.909587 0.617044 0.0280497 0.0306425 0.0273476 0.00235213 0.407831 0.00226302 0.411469 0.0291976 0.0281737 0.969663 0.0035084 0.977004 0.00283341 0.893938 0.0294819 0.89306 0.0275315 0.998008 0.0281737 0.969663 0.412395 0.97034 0.408803 0.99732 0.411469 0.0291976 0.434651 0.0189737 0.463012 0.0947797 0.436185 0.106465 0.568763 0.0287269 0.57311 0.00199203 0.707933 0.00199209 0.71228 0.028727 0.435601 0.980503 0.412395 0.97034 0.43706 0.892964 0.463915 0.904622 0.533287 0.414798 0.507989 0.406928 0.504285 0.339902 0.531533 0.342176 0.576789 0.442809 0.571296 0.417681 0.709747 0.417681 0.704254 0.442809 0.507989 0.406928 0.508568 0.435723 0.0276849 0.435978 0.0282112 0.407168 0.508386 0.592056 0.533705 0.584092 0.532208 0.656816 0.504964 0.659181 0.508842 0.563235 0.508386 0.592056 0.0280428 0.592454 0.0275761 0.563608 0.0282112 0.407168 0.00346815 0.415321 0.00330237 0.340228 0.0299637 0.339717 0.774222 0.232427 0.779715 0.207299 0.90718 0.207299 0.912672 0.232427 0.00326527 0.584231 0.0280428 0.592454 0.0296844 0.660037 0.00295438 0.659476 0.436185 0.106465 0.463012 0.0947797 0.483463 0.151385 0.45745 0.159384 0.463915 0.904622 0.43706 0.892964 0.45833 0.839972 0.484376 0.847959 0.0299637 0.339717 0.00330237 0.340228 0.00235507 0.282461 0.0292495 0.282037 0.00295438 0.659476 0.0296844 0.660037 0.0288335 0.717889 0.00188564 0.71747 0.485178 0.27938 0.458485 0.288148 0.45745 0.159384 0.483463 0.151385 0.458485 0.288148 0.485178 0.27938 0.531533 0.342176 0.504285 0.339902 0.459325 0.711095 0.486049 0.719823 0.484376 0.847959 0.45833 0.839972 0.486049 0.719823 0.459325 0.711095 0.504964 0.659181 0.532208 0.656816 0.00188564 0.71747 0.0288335 0.717889 0.0288923 0.843205 0.00197209 0.84364 0.00197209 0.84364 0.0288923 0.843205 0.0294819 0.89306 0.00283341 0.893938 0.0292495 0.282037 0.00235507 0.282461 0.00218453 0.156511 0.0290483 0.156898 0.0290483 0.156898 0.00218453 0.156511 0.0029315 0.106297 0.0295266 0.107118 0.541319 0.449377 0.6736 0.449377 0.674871 0.830364 0.540048 0.830364 0.540551 0.284473 0.740492 0.284473 0.738856 0.360225 0.542187 0.360225 0.508568 0.435723 0.508842 0.563235 0.0275761 0.563608 0.0276849 0.435978 0.743477 0.294237 0.943417 0.294238 0.943417 0.347887 0.743477 0.347887 0.459325 0.711095 0.0288335 0.717889 0.0296844 0.660037 0.504964 0.659181 0.504285 0.339902 0.0299637 0.339717 0.0292495 0.282037 0.458485 0.288148 0.540552 0.156325 0.740491 0.156325 0.45833 0.839972 0.0288923 0.843205 0.0288335 0.717889 0.459325 0.711095 0.943417 0.472802 0.743477 0.472802 0.458485 0.288148 0.0292495 0.282037 0.0290483 0.156898 0.45745 0.159384 0.540048 0.100316 0.740995 0.100316 0.43706 0.892964 0.0294819 0.89306 0.0288923 0.843205 0.45833 0.839972 0.943417 0.519283 0.743477 0.519283 0.45745 0.159384 0.0290483 0.156898 0.0295266 0.107118 0.436185 0.106465 0.504964 0.659181 0.0296844 0.660037 0.0280428 0.592454 0.508386 0.592056 0.0282112 0.407168 0.0299637 0.339717 0.504285 0.339902 0.507989 0.406928 0.0281737 0.969663 0.0294819 0.89306 0.43706 0.892964 0.412395 0.97034 0.436185 0.106465 0.0295266 0.107118 0.0280497 0.0306425 0.00340338 0.0233605 0.0273476 0.00235213 0.0280497 0.0306425 0.0281737 0.969663 0.0275315 0.998008 0.0035084 0.977004 0.411469 0.0291976 0.407831 0.00226302 0.434651 0.0189737 0.435601 0.980503 0.408803 0.99732 0.412395 0.97034 0.533287 0.414798 0.508568 0.435723 0.507989 0.406928 0.508386 0.592056 0.508842 0.563235 0.533705 0.584092 0.0282112 0.407168 0.0276849 0.435978 0.00346815 0.415321 0.00326527 0.584231 0.0275761 0.563608 0.0280428 0.592454 </float_array>
          <technique_common>
            <accessor count="473" offset="0" source="#meshId0-tex0-array" stride="2">
              <param name="S" type="float" />
              <param name="T" type="float" />
            </accessor>
          </technique_common>
        </source>
        <vertices id="meshId0-vertices">
          <input semantic="POSITION" source="#meshId0-positions" />
          <input semantic="NORMAL" source="#meshId0-normals" />
          <input semantic="TANGENT" source="#meshId0-tangents" />
          <input semantic="BINORMAL" source="#meshId0-bitangents" />
          <input semantic="TEXCOORD" source="#meshId0-tex0"  />
        </vertices>
        <polylist count="258" material="defaultMaterial">
          <input offset="0" semantic="VERTEX" source="#meshId0-vertices" />
          <vcount>3 3 3 3 3 3 3 3 3 3 3 3 3 3 3 3 3 3 3 3 3 3 3 3 3 3 3 3 3 3 3 3 3 3 3 3 3 3 3 3 3 3 3 3 3 3 3 3 3 3 3 3 3 3 3 3 3 3 3 3 3 3 3 3 3 3 3 3 3 3 3 3 3 3 3 3 3 3 3 3 3 3 3 3 3 3 3 3 3 3 3 3 3 3 3 3 3 3 3 3 3 3 3 3 3 3 3 3 3 3 3 3 3 3 3 3 3 3 3 3 3 3 3 3 3 3 3 3 3 3 3 3 3 3 3 3 3 3 3 3 3 3 3 3 3 3 3 3 3 3 3 3 3 3 3 3 3 3 3 3 3 3 3 3 3 3 3 3 3 3 3 3 3 3 3 3 3 3 3 3 3 3 3 3 3 3 3 3 3 3 3 3 3 3 3 3 3 3 3 3 3 3 3 3 3 3 3 3 3 3 3 3 3 3 3 3 3 3 3 3 3 3 3 3 3 3 3 3 3 3 3 3 3 3 3 3 3 3 3 3 3 3 3 3 3 3 3 3 3 3 3 3 3 3 3 3 3 3 </vcount>
          <p>3 0 1 1 2 3 4 5 6 7 8 9 13 10 11 11 12 13 14 15 16 17 18 19 23 20 21 21 22 23 24 25 26 27 28 29 33 30 31 31 32 33 37 34 35 35 36 37 41 38 39 39 40 41 45 42 43 43 44 45 49 46 47 47 48 49 53 50 51 51 52 53 57 54 55 55 56 57 61 58 59 59 60 61 65 62 63 63 64 65 69 66 67 67 68 69 73 70 71 71 72 73 77 74 75 75 76 77 81 78 79 79 80 81 85 82 83 83 84 85 89 86 87 87 88 89 93 90 91 91 92 93 97 94 95 95 96 97 101 98 99 99 100 101 105 102 103 103 104 105 109 106 107 107 108 109 113 110 111 111 112 113 117 114 115 115 116 117 121 118 119 119 120 121 125 122 123 123 124 125 129 126 127 127 128 129 133 130 131 131 132 133 137 134 135 135 136 137 141 138 139 139 140 141 145 142 143 143 144 145 149 146 147 147 148 149 153 150 151 151 152 153 157 154 155 155 156 157 161 158 159 159 160 161 165 162 163 163 164 165 169 166 167 167 168 169 173 170 171 171 172 173 177 174 175 175 176 177 181 178 179 179 180 181 185 182 183 183 184 185 189 186 187 187 188 189 193 190 191 191 192 193 197 194 195 195 196 197 201 198 199 199 200 201 200 199 202 202 203 200 203 202 204 204 205 203 205 204 206 206 207 205 210 206 208 208 209 210 209 211 212 212 213 209 213 212 194 194 197 213 217 214 215 215 216 217 215 218 219 219 216 215 219 220 221 221 222 219 221 223 217 217 216 221 227 224 225 225 226 227 231 228 229 229 230 231 230 229 232 232 233 230 233 232 234 234 235 233 235 234 236 236 237 235 237 236 238 238 239 237 239 238 240 240 241 239 241 240 224 224 227 241 245 242 243 243 244 245 249 246 247 247 248 249 253 250 251 251 252 253 257 254 255 255 256 257 261 258 259 259 260 261 265 262 263 263 264 265 269 266 267 267 268 269 273 270 271 271 272 273 277 274 275 275 276 277 281 278 279 279 280 281 285 282 283 283 284 285 289 286 287 287 288 289 293 290 291 291 292 293 297 294 295 295 296 297 301 298 299 299 300 301 305 302 303 303 304 305 309 306 307 307 308 309 313 310 311 311 312 313 317 314 315 315 316 317 321 318 319 319 320 321 325 322 323 323 324 325 329 326 327 327 328 329 333 330 331 331 332 333 337 334 335 335 336 337 341 338 339 339 340 341 345 342 343 343 344 345 349 346 347 347 348 349 353 350 351 351 352 353 357 354 355 355 356 357 361 358 359 359 360 361 365 362 363 363 364 365 369 366 367 367 368 369 373 370 371 371 372 373 377 374 375 375 376 377 381 378 379 379 380 381 385 382 383 383 384 385 389 386 387 387 388 389 393 390 391 391 392 393 397 394 395 395 396 397 401 398 399 399 400 401 405 402 403 403 404 405 409 406 407 407 408 409 390 410 411 411 391 390 415 412 413 413 414 415 417 401 400 400 416 417 421 418 419 419 420 421 410 422 423 423 411 410 427 424 425 425 426 427 429 417 416 416 428 429 433 430 431 431 432 433 398 330 333 333 399 398 437 434 435 435 436 437 311 393 392 392 312 311 441 438 439 439 440 441 422 298 301 301 423 422 445 442 443 443 444 445 279 429 428 428 280 279 285 446 447 447 448 285 449 450 451 452 453 454 455 456 457 458 459 460 461 462 463 464 465 466 467 468 469 470 471 472 </p>
        </polylist>
      </mesh>
    </geometry>
  </library_geometries>
  <library_visual_scenes>
    <visual_scene id="root" name="root">
      <node id="low_handle5" name="low_handle5">
        <matrix>1 0 0 0 0 1 0 0 0 0 1 0 0 0 0 1</matrix>
        <instance_geometry url="#meshId0">
          <bind_material>
            <technique_common>
              <instance_material symbol="defaultMaterial" target="#lambert2" />
            </technique_common>
          </bind_material>
        </instance_geometry>
      </node>
    </visual_scene>
  </library_visual_scenes>
  <scene>
    <instance_visual_scene url="#root" />
  </scene>
</COLLADA>
